<?xml version="1.0" encoding="UTF-8"?><svg id="Layer_2" xmlns="http://www.w3.org/2000/svg" viewBox="0 0 394.98 63.47"><defs><style>.cls-1{fill:blue;}</style></defs><g id="Layer_1-2"><path class="cls-1" d="m213.2,55.47c-3.06.03-6.1-.59-8.9-1.81-2.72-1.19-5.18-2.91-7.21-5.06-2.08-2.2-3.72-4.78-4.83-7.59-1.18-3.01-1.77-6.21-1.74-9.43-.02-3.13.53-6.23,1.63-9.17,1.05-2.81,2.64-5.38,4.68-7.59,2.07-2.22,4.59-3.99,7.39-5.19,3.06-1.3,6.36-1.94,9.69-1.9,4.15.01,8.25.91,12.02,2.64,1.83.83,3.55,1.89,5.11,3.16l-4.27,7c-1.71-1.56-3.73-2.76-5.92-3.51-2.19-.81-4.5-1.23-6.84-1.24-2.01-.04-4.01.36-5.86,1.16-1.66.75-3.13,1.86-4.29,3.25-1.19,1.45-2.08,3.11-2.64,4.9-.62,1.97-.92,4.03-.9,6.09-.03,2.22.31,4.42,1.01,6.53.61,1.84,1.57,3.56,2.82,5.05,1.17,1.38,2.63,2.49,4.27,3.26,1.64.76,3.43,1.15,5.24,1.14,1.48,0,2.95-.25,4.34-.74,1.36-.46,2.62-1.17,3.73-2.08,1.07-.86,1.95-1.94,2.58-3.15.64-1.22.97-2.58.96-3.96v-.7h-12.1v-2.04l21.34-7.59v9.6c.03,2.66-.57,5.3-1.75,7.69-1.16,2.3-2.79,4.35-4.78,6-2.03,1.7-4.35,3.02-6.85,3.91-2.54.92-5.22,1.38-7.92,1.38h0Z"/><path class="cls-1" d="m161.81,55.61c-3.11.03-6.19-.6-9.04-1.84-2.77-1.2-5.29-2.94-7.39-5.11-4.38-4.54-6.82-10.61-6.82-16.92s2.45-12.37,6.82-16.92c2.11-2.17,4.62-3.91,7.39-5.11,2.86-1.21,5.93-1.84,9.04-1.84s6.18.63,9.04,1.84c2.78,1.2,5.29,2.94,7.39,5.11,2.12,2.19,3.81,4.77,4.98,7.59,1.21,2.95,1.82,6.11,1.79,9.3.05,6.31-2.38,12.39-6.77,16.92-2.1,2.17-4.62,3.91-7.39,5.11-2.85,1.25-5.92,1.89-9.03,1.87Zm0-8.57c1.86.02,3.71-.36,5.41-1.11,1.63-.74,3.08-1.82,4.27-3.16,1.25-1.41,2.21-3.04,2.85-4.81.65-1.96.96-4.02.91-6.09.04-2.08-.28-4.15-.95-6.12-.64-1.75-1.61-3.36-2.85-4.74-1.87-2.02-4.32-3.41-7.02-3.98-2.7-.57-5.5-.28-8.03.82-1.63.74-3.09,1.82-4.27,3.16-1.25,1.4-2.22,3.04-2.85,4.81-.67,1.96-.99,4.02-.95,6.09-.04,2.07.28,4.13.95,6.09.63,1.77,1.59,3.41,2.85,4.81,1.18,1.35,2.64,2.42,4.28,3.16,1.69.74,3.52,1.1,5.37,1.07h.03Z"/><path class="cls-1" d="m305.66,55.61c-3.11.03-6.18-.6-9.03-1.84-2.78-1.2-5.29-2.94-7.39-5.11-4.39-4.53-6.82-10.61-6.78-16.92-.04-6.31,2.4-12.38,6.78-16.92,2.1-2.17,4.62-3.91,7.39-5.11,2.85-1.21,5.92-1.83,9.01-1.83s6.16.62,9.01,1.83c2.78,1.2,5.29,2.94,7.39,5.11,4.39,4.53,6.82,10.61,6.79,16.92.04,6.31-2.4,12.38-6.79,16.92-2.09,2.17-4.58,3.91-7.33,5.11-2.85,1.24-5.94,1.87-9.05,1.84h0Zm0-8.57c1.86.02,3.71-.36,5.41-1.11,1.63-.74,3.09-1.81,4.27-3.16,1.25-1.41,2.21-3.04,2.85-4.81.69-1.96,1.03-4.02,1.01-6.09,0-2.09-.36-4.16-1.06-6.12-.63-1.77-1.6-3.4-2.85-4.81-1.19-1.34-2.64-2.42-4.27-3.16-1.7-.73-3.54-1.11-5.39-1.11s-3.69.38-5.39,1.11c-1.63.76-3.08,1.86-4.25,3.23-1.25,1.4-2.22,3.04-2.85,4.81-.66,1.96-.98,4.02-.95,6.09-.03,2.07.29,4.13.95,6.09.63,1.77,1.59,3.41,2.85,4.81,1.19,1.34,2.64,2.42,4.28,3.16,1.69.74,3.52,1.1,5.37,1.07h.03Z"/><path class="cls-1" d="m344.49,54.69l-12.3-42.65-.95-3.23h10.01l8.68,33.53,7.94-27.22,1.84-6.31h6.75l.86,2.94,8.9,30.59,7.68-29.57,1.02-3.96h10.04l-13.24,45.87h-10l-8.63-28.5-7.39,24.48-1.21,4.02h-10.02Z"/><path class="cls-1" d="m264.53,36.37c2.02-.55,3.91-1.51,5.53-2.84,1.52-1.25,2.72-2.85,3.5-4.65.84-1.96,1.26-4.08,1.23-6.21.08-2.62-.57-5.21-1.89-7.47-1.28-2.07-3.15-3.71-5.36-4.73-2.56-1.16-5.35-1.72-8.16-1.65h-15.64v7.01h12.71c2.77,0,4.91.6,6.43,1.81.75.62,1.34,1.41,1.73,2.32.39.9.56,1.88.5,2.87.04,1.35-.32,2.68-1.03,3.82-.73,1.08-1.76,1.92-2.96,2.39-1.49.58-3.08.85-4.68.81h-3.78v-9.31l-8.92,3.29v30.87h8.92v-17.2h2.15l13.1,17.2h11.6l-2.59-3.17-12.39-15.15Z"/><path class="cls-1" d="m110.93,55.45c-3.08.03-6.12-.58-8.94-1.81-2.72-1.19-5.18-2.91-7.22-5.06-2.06-2.21-3.68-4.78-4.78-7.59-1.18-3-1.78-6.21-1.75-9.43-.02-3.13.53-6.23,1.63-9.17,1.05-2.81,2.65-5.39,4.69-7.59,2.08-2.24,4.61-4.02,7.42-5.22,3.06-1.29,6.36-1.94,9.69-1.9,4.15,0,8.25.91,12.02,2.64,1.81.84,3.51,1.91,5.04,3.18l-4.26,7c-1.71-1.56-3.72-2.75-5.91-3.5-2.19-.8-4.5-1.23-6.84-1.24-2.01-.04-4,.36-5.84,1.16-1.66.75-3.12,1.86-4.28,3.25-1.19,1.45-2.09,3.11-2.65,4.9-.61,1.97-.91,4.03-.9,6.09-.01,2.22.35,4.42,1.06,6.53.63,1.85,1.6,3.56,2.87,5.05,1.16,1.38,2.6,2.49,4.23,3.26,1.64.76,3.43,1.15,5.24,1.14,1.48,0,2.95-.25,4.34-.74,1.36-.46,2.62-1.17,3.72-2.08,1.05-.87,1.91-1.94,2.53-3.15.64-1.22.97-2.58.96-3.96v-.69h-12.1v-7.01h21.34v6.96c.03,2.66-.57,5.3-1.76,7.69-1.16,2.31-2.78,4.35-4.78,6-2.03,1.69-4.35,3.02-6.85,3.91-2.54.92-5.23,1.38-7.93,1.38Z"/><path class="cls-1" d="m70.67,16.03l-9.18,3.28-21.21-11.3-22.23,7.93,12.47,6.63,6.53-2.35-6.08-3.27,9.19-3.31,15.07,7.92-25.04,8.96L0,14.61,40.45,0l30.22,16.03Z"/><path class="cls-1" d="m71.21,17.53l-9.18,3.29-9.22,22.19-22.22,7.97,5.43-13.04,6.54-2.32-2.62,6.39,9.21-3.28,6.62-15.67-25.04,8.96-13.24,31.45,40.53-14.36,13.19-31.58Z"/></g></svg>